<svg width="51" height="50" viewBox="0 0 51 50" fill="none" xmlns="http://www.w3.org/2000/svg">
<g clip-path="url(#clip0_11_850)">
<path d="M34.3353 50C28.4485 50 22.5566 50 16.6698 50C15.9573 49.9394 15.2499 49.8585 14.5374 49.8231C6.72031 49.4391 1.71273 44.7903 0.793077 37.044C0.661698 35.9778 0.596008 34.9015 0.5 33.8353C0.5 27.9434 0.5 22.0566 0.5 16.1647C0.560637 15.4522 0.641486 14.7398 0.676857 14.0273C1.06089 6.22537 5.71475 1.21273 13.4611 0.288024C14.5273 0.161698 15.5985 0.090955 16.6647 0C22.5566 0 28.4434 0 34.3353 0C35.0478 0.0606367 35.7552 0.141486 36.4677 0.176857C44.2746 0.555836 49.2873 5.2097 50.212 12.956C50.3383 14.0222 50.409 15.0935 50.5051 16.1647C50.5051 22.0515 50.5051 27.9434 50.5051 33.8302C50.4444 34.5427 50.3636 35.2552 50.3282 35.9677C49.9391 43.7797 45.2953 48.7822 37.544 49.7069C36.4727 49.8383 35.4015 49.904 34.3353 50ZM4.91637 24.9116C4.94669 24.9116 4.97701 24.9116 5.01238 24.9166C5.01238 25.1642 5.00733 25.4169 5.01238 25.6645C5.11849 29.4341 5.06796 33.2188 5.37115 36.9732C5.66928 40.6266 7.52375 43.3957 11.1417 44.5831C12.5414 45.043 14.0725 45.2754 15.5531 45.3158C20.4646 45.4472 25.3762 45.4826 30.2928 45.4725C32.7031 45.4674 35.1286 45.3967 37.5237 45.144C41.9704 44.669 44.8355 42.0414 45.5278 37.6301C45.9118 35.1794 45.9573 32.6529 45.9674 30.1617C45.9876 24.9419 45.9826 19.7221 45.8108 14.5073C45.6137 8.58514 42.6779 5.10864 36.8669 4.83072C29.3024 4.47701 21.7026 4.48711 14.1433 4.83578C8.53436 5.09348 5.7956 8.06468 5.28525 13.6837C4.94669 17.4078 5.02249 21.1673 4.91637 24.9116Z" fill="#A60030"/>
<path d="M38.3372 25.0581C38.3271 32.1678 32.5717 37.8575 25.4014 37.8373C18.3422 37.8171 12.6525 32.0616 12.6626 24.9419C12.6727 17.8322 18.4281 12.1425 25.5984 12.1627C32.6576 12.1829 38.3473 17.9384 38.3372 25.0581ZM25.4671 33.33C30.0401 33.3451 33.8046 29.621 33.8299 25.0531C33.8551 20.48 30.1411 16.7054 25.5732 16.67C20.9648 16.6347 17.175 20.384 17.1699 24.9874C17.1649 29.5604 20.8991 33.3148 25.4671 33.33Z" fill="#A60030"/>
<path d="M38.8426 14.664C37.1751 14.664 35.8259 13.2996 35.836 11.6321C35.8512 9.95958 37.2054 8.64073 38.888 8.65589C40.5303 8.6761 41.834 9.9899 41.8441 11.6372C41.8542 13.3148 40.5151 14.664 38.8426 14.664Z" fill="#A60030"/>
</g>
<defs>
<clipPath id="clip0_11_850">
<rect width="50" height="50" fill="white" transform="translate(0.5)"/>
</clipPath>
</defs>
</svg>
