<svg width="222" height="46" viewBox="0 0 222 46" fill="none" xmlns="http://www.w3.org/2000/svg">
<g clip-path="url(#clip0_8_790)">
<path d="M19.8682 37.1235C19.8682 37.9914 19.6699 38.7015 19.2337 39.2933C18.7974 39.8851 18.1233 40.2007 17.1318 40.2007H4.44159V45.9605H0V36.4923H14.4748C14.6731 36.4923 14.8714 36.3739 15.0697 36.1767C15.268 35.94 15.3473 35.7033 15.3473 35.4271C15.3473 35.1509 15.268 34.9537 15.1093 34.7564C14.9507 34.5592 14.7128 34.4408 14.4748 34.3619C14.1972 34.283 13.9196 34.2436 13.642 34.2436H0V30.5746H16.7353C17.8853 30.5746 18.7181 30.8508 19.194 31.4031C19.6302 31.9554 19.8682 32.6655 19.8682 33.5334V37.1235Z" fill="#A60030"/>
<path d="M39.4587 46H26.6891C25.8167 46 24.9839 45.7633 24.27 45.2504C23.5562 44.7376 22.9217 44.1063 22.5251 43.3962C22.0889 42.6467 21.8906 41.976 21.8906 41.3053V34.8353C21.8906 34.1647 22.1682 33.494 22.6838 32.8233C23.1993 32.1527 23.8338 31.6003 24.5873 31.1664C25.3011 30.7719 25.9356 30.5746 26.4512 30.5746H39.1414V34.0858H27.8392C27.5616 34.0858 27.284 34.1647 27.046 34.283C26.8081 34.4408 26.5702 34.6381 26.4115 34.8748C26.2529 35.072 26.1736 35.3482 26.1736 35.5849V36.4923H39.0225V39.964H26.2529V41.187C26.2529 41.5026 26.4115 41.7393 26.7684 41.976C27.1254 42.2127 27.4823 42.331 27.7995 42.331H39.419V46H39.4587Z" fill="#A60030"/>
<path d="M62.9358 46H58.3355C57.9786 44.1063 57.6614 42.6467 57.3441 41.6604C57.0269 40.6741 56.5906 40.1612 56.0354 40.1612H45.9229V46H41.4813V36.6106H55.3216C55.7182 36.6106 56.0354 36.4923 56.3527 36.2556C56.6699 36.0189 56.7889 35.7427 56.7889 35.3877C56.7889 35.2298 56.7493 35.072 56.6303 34.8748C56.5113 34.6775 56.3923 34.5197 56.1544 34.4014C55.9165 34.283 55.6785 34.2041 55.3613 34.2041H41.4417V30.5746H58.4149C59.4459 30.5746 60.1598 30.8508 60.6357 31.4425C61.0719 31.9949 61.3098 32.6655 61.3098 33.4545V36.5712C61.3098 37.2024 61.1908 37.6758 60.9529 37.9914C60.715 38.307 60.2787 38.6226 59.5649 39.0172C60.0011 39.2539 60.3581 39.4511 60.5167 39.5695C60.715 39.6878 60.9529 40.0034 61.2305 40.4374C61.5081 40.8714 61.7857 41.542 62.0633 42.41C62.3409 43.2779 62.6582 44.5009 62.9358 46Z" fill="#A60030"/>
<path d="M81.8124 34.1647H70.3119C69.955 34.1647 69.598 34.3225 69.2808 34.6775C68.9635 35.0326 68.8049 35.3482 68.8049 35.6638L68.8446 36.4528H81.5745V40.0429H68.8446V45.9605H64.4426V34.6775C64.4426 34.0858 64.6806 33.4545 65.1168 32.8233C65.553 32.1921 66.1479 31.6398 66.8617 31.2058C67.5755 30.7719 68.2894 30.5746 69.0032 30.5746H81.8124V34.1647Z" fill="#A60030"/>
<path d="M103.743 41.7787C103.743 42.2916 103.544 42.8834 103.148 43.554C102.751 44.2247 102.236 44.777 101.601 45.2504C100.967 45.7238 100.372 45.9605 99.777 45.9605H88.8317C87.9592 45.9605 87.1264 45.7238 86.3729 45.211C85.6195 44.6981 85.0246 44.0669 84.5884 43.2779C84.1521 42.4889 83.9539 41.7393 83.9539 41.0292V30.5746H88.3558V39.8851C88.3558 40.319 88.4748 40.7136 88.7127 41.0686C88.9506 41.4237 89.2679 41.6998 89.5852 41.8971C89.9024 42.0943 90.2197 42.2127 90.4576 42.2127H97.1596C97.4372 42.2127 97.7545 42.0943 98.0321 41.8576C98.3494 41.6209 98.5873 41.3448 98.8252 40.9897C99.0235 40.6741 99.1425 40.3585 99.1425 40.1218V30.5746H103.703V41.7787H103.743Z" fill="#A60030"/>
<path d="M132.098 45.9605H127.616V36.4134C127.616 36.2556 127.537 36.1372 127.418 36.0189C127.299 35.9005 127.18 35.8611 127.061 35.8611C126.744 35.8611 126.506 36.0189 126.387 36.295L120.994 46.0394H116.75L111.198 36.2556C111.198 36.0583 111.119 35.9794 111.04 35.8611C110.96 35.7822 110.841 35.7033 110.762 35.6638C110.643 35.6244 110.564 35.5849 110.524 35.5849C110.405 35.5849 110.247 35.6638 110.167 35.7822C110.048 35.94 110.009 36.0583 110.009 36.2161V45.9211H105.607V34.0858C105.607 33.494 105.765 32.9811 106.043 32.5077C106.281 32.0343 106.638 31.6003 107.074 31.2847C107.51 30.9691 107.946 30.693 108.422 30.5352C108.898 30.3379 109.295 30.259 109.652 30.259C110.643 30.259 111.516 30.4957 112.19 31.0086C112.864 31.5214 113.578 32.3894 114.331 33.6518L118.773 41.6209L123.333 33.6518C123.928 32.5472 124.563 31.7187 125.277 31.1269C125.99 30.5352 126.823 30.259 127.854 30.259C128.449 30.259 129.044 30.3774 129.56 30.6141C130.075 30.8508 130.551 31.1664 130.948 31.5609C131.344 31.9554 131.622 32.3894 131.82 32.9022C132.018 33.3756 132.098 33.8491 132.098 34.283V45.9605Z" fill="#A60030"/>
<path d="M151.926 46H139.156C138.284 46 137.451 45.7633 136.737 45.2504C135.984 44.7376 135.429 44.1458 134.992 43.3962C134.556 42.6467 134.358 41.976 134.358 41.3053V34.8353C134.358 34.1647 134.636 33.494 135.151 32.8233C135.667 32.1527 136.301 31.6003 137.055 31.1664C137.768 30.7324 138.403 30.5352 138.918 30.5352H151.609V34.0463H140.346C140.069 34.0463 139.791 34.1252 139.553 34.2436C139.315 34.4014 139.117 34.5592 138.918 34.7959C138.76 35.0326 138.681 35.2693 138.681 35.5455V36.4528H151.529V39.9245H138.76V41.1475C138.76 41.4631 138.918 41.6998 139.275 41.9365C139.632 42.1732 139.989 42.2916 140.306 42.2916H151.926V46Z" fill="#A60030"/>
<path d="M173.777 43.5146C173.777 43.7907 173.698 44.1458 173.539 44.5009C173.381 44.8954 173.143 45.211 172.786 45.5266C172.429 45.8027 171.993 45.9605 171.437 45.9605H153.909V36.4923H167.472C167.67 36.4923 167.948 36.3739 168.225 36.1767C168.542 35.9794 168.701 35.7033 168.701 35.3087C168.701 35.0326 168.582 34.7959 168.344 34.5197C168.106 34.2436 167.749 34.1252 167.313 34.1252H153.909V30.5746H170.208C170.684 30.5746 171.16 30.7324 171.596 31.048C172.032 31.3636 172.389 31.7187 172.667 32.1527C172.944 32.5866 173.063 32.9811 173.063 33.3362V35.506C173.063 35.9005 173.024 36.2161 172.905 36.4923C172.786 36.729 172.667 36.9657 172.468 37.1235C172.27 37.3208 171.953 37.5575 171.556 37.9125C172.23 38.3859 172.786 38.8199 173.182 39.2144C173.579 39.6089 173.777 40.0429 173.777 40.4768V43.5146ZM169.177 41.2659C169.177 40.5557 168.82 40.2007 168.106 40.2007H158.39V42.2521H168.265C168.542 42.2521 168.741 42.1732 168.939 41.976C169.098 41.7787 169.177 41.542 169.177 41.2659Z" fill="#A60030"/>
<path d="M196.976 41.3053C196.976 42.1732 196.738 42.9623 196.263 43.6724C195.787 44.3825 195.192 44.9743 194.518 45.3688C193.843 45.8027 193.209 46 192.693 46H180.757C179.765 46 178.893 45.7633 178.139 45.2504C177.386 44.7376 176.791 44.1063 176.394 43.3568C175.998 42.6072 175.8 41.8576 175.8 41.187V35.3482C175.8 34.717 175.919 34.1252 176.196 33.5334C176.474 32.9417 176.831 32.4288 177.307 31.9948C177.743 31.5609 178.258 31.2058 178.774 30.9297C179.329 30.6535 179.805 30.5352 180.32 30.5352H192.059C192.574 30.5352 193.249 30.693 194.002 31.048C194.756 31.4031 195.469 31.9554 196.064 32.7444C196.659 33.5334 196.976 34.5197 196.976 35.7427V41.3053ZM192.535 39.8456V36.6895C192.535 36.0189 192.297 35.4665 191.861 34.9931C191.424 34.5197 190.671 34.283 189.719 34.283H182.819C182.541 34.283 182.224 34.4014 181.827 34.5986C181.431 34.7959 181.074 35.072 180.796 35.3876C180.519 35.7033 180.36 36.0583 180.36 36.4528V39.4511C180.36 40.1612 180.558 40.7924 180.955 41.2659C181.352 41.7787 181.907 42.0154 182.66 42.0154H190.314C190.949 42.0154 191.464 41.8576 191.9 41.5026C192.297 41.187 192.535 40.6346 192.535 39.8456Z" fill="#A60030"/>
<path d="M222 45.9605H215.814L210.182 40.2007L204.591 45.9605H198.285L205.979 38.307L199.197 30.5746H204.63L210.063 36.4134L215.655 30.5746H221.445L214.426 38.3859L222 45.9605Z" fill="#A60030"/>
<path d="M120.319 8.63979C119.923 8.24528 119.368 7.81132 118.693 7.33791C119.13 6.98285 119.447 6.74614 119.606 6.54888C119.804 6.35163 119.923 6.15437 120.042 5.91767C120.161 5.68096 120.2 5.3259 120.2 4.93139V2.76158C120.2 2.40652 120.081 2.01201 119.804 1.57804C119.526 1.14408 119.169 0.789022 118.733 0.473413C118.297 0.157804 117.861 0 117.385 0H101.086V3.5506H114.49C114.926 3.5506 115.243 3.66895 115.521 3.94511C115.759 4.22127 115.878 4.49743 115.878 4.73413C115.878 5.08919 115.719 5.36535 115.402 5.60206C115.085 5.79931 114.847 5.91767 114.648 5.91767H101.086V15.4254H105.527V11.717V10.1784V9.66552H115.243C115.957 9.66552 116.314 10.0206 116.314 10.7307C116.314 11.0069 116.235 11.2436 116.076 11.4408C115.917 11.6381 115.679 11.717 115.402 11.717H109.096V15.4254H118.614C119.169 15.4254 119.606 15.2676 119.962 14.9914C120.319 14.7153 120.557 14.3602 120.716 13.9657C120.875 13.5712 120.954 13.2556 120.954 12.9794V9.90223C120.914 9.42882 120.716 8.99485 120.319 8.63979Z" fill="#A60030"/>
</g>
<defs>
<clipPath id="clip0_8_790">
<rect width="222" height="46" fill="white"/>
</clipPath>
</defs>
</svg>
